# xmcd
#
# Track frame offsets:
#	150
#	13032
#	42292
#	61985
#	81217
#	95885
#	119402
#	155345
#	166662
#	178792
#	197220
#	216880
#
# Disc length: 3147
#
# Revision: 5
# Processed by: cddbd v1.5.2PL0 Copyright (c) Steve Scherf et al.
# Submitted via: ExactAudioCopy v0.90b4
# Normalized: r4:DSETVAR1
#
DISCID=a20c490c
DTITLE=Various / Jazz Piano Anthology  -  In The Beginning - Volume 1
DYEAR=1997
DGENRE=Jazz
TTITLE0=James P. Johnson / Liza
TTITLE1=James P. Johnson / Jazzamine Concerto
TTITLE2=Jelly Roll Morton / Shreveport Stomps
TTITLE3=Jelly Roll Morton / Dead Man Blues
TTITLE4=Earl Hines / Shiny Stockings
TTITLE5=Earl Hines / Sometimes I'm Happy
TTITLE6=Earl Hines / Once In A While
TTITLE7=Fats Waller / Ain't Misbehavin'
TTITLE8=Fats Waller / Honeysuckle Rose
TTITLE9=Teddy Wilson / I've Got The World On A String
TTITLE10=Teddy Wilson / You Go To My Head
TTITLE11=Teddy Wilson / After You've Gone
EXTD=dsr
EXTT0=James P. Johnson
EXTT1=James P. Johnson
EXTT2=Jelly Roll Morton
EXTT3=Jelly Roll Morton
EXTT4=Earl Hines
EXTT5=Earl Hines
EXTT6=Earl Hines
EXTT7=Fats Waller
EXTT8=Fats Waller
EXTT9=Teddy Wilson
EXTT10=Teddy Wilson
EXTT11=Teddy Wilson
PLAYORDER=
.
